ply
format ascii 1.0
comment Created in Blender version 5.2.0 LTS
element vertex 63
property float x
property float y
property float z
property float s
property float t
property float b0
property float b1
property float b2
element face 48
property list uchar uint vertex_indices
end_header
0.7598076 0.4 0 0 0 1 0 0
0.5776457 0.53977776 0 0.125 0 1 0 0
0.5776457 0.53977776 0.5 0.125 0.16666667 1 0 0
0.7598076 0.4 0.5 0 0.16666667 1 0 0
0.35 0.5098076 0 0.25 0 1 0 0
0.35 0.5098076 0.5 0.25 0.16666667 1 0 0
0.21022224 0.32764572 0 0.375 0 1 0 0
0.21022224 0.32764572 0.5 0.375 0.16666667 1 0 0
0.24019238 0.099999994 0 0.5 0 1 0 0
0.24019238 0.099999994 0.5 0.5 0.16666667 1 0 0
0.42235428 -0.039777756 0 0.625 0 1 0 0
0.42235428 -0.039777756 0.5 0.625 0.16666667 1 0 0
0.65 -0.0098076165 0 0.75 0 1 0 0
0.65 -0.0098076165 0.5 0.75 0.16666667 1 0 0
0.78977776 0.1723543 0 0.875 0 1 0 0
0.78977776 0.1723543 0.5 0.875 0.16666667 1 0 0
0.7598076 0.4 0 1 0 1 0 0
0.7598076 0.4 0.5 1 0.16666667 1 0 0
0.5776457 0.53977776 1 0.125 0.33333334 0.5 0.5 0
0.7598076 0.4 1 0 0.33333334 0.5 0.5 0
0.35 0.5098076 1 0.25 0.33333334 0.5 0.5 0
0.21022224 0.32764572 1 0.375 0.33333334 0.5 0.5 0
0.24019238 0.099999994 1 0.5 0.33333334 0.5 0.5 0
0.42235428 -0.039777756 1 0.625 0.33333334 0.5 0.5 0
0.65 -0.0098076165 1 0.75 0.33333334 0.5 0.5 0
0.78977776 0.1723543 1 0.875 0.33333334 0.5 0.5 0
0.7598076 0.4 1 1 0.33333334 0.5 0.5 0
0.5776457 0.53977776 1.5 0.125 0.5 0 1 0
0.7598076 0.4 1.5 0 0.5 0 1 0
0.35 0.5098076 1.5 0.25 0.5 0 1 0
0.21022224 0.32764572 1.5 0.375 0.5 0 1 0
0.24019238 0.099999994 1.5 0.5 0.5 0 1 0
0.42235428 -0.039777756 1.5 0.625 0.5 0 1 0
0.65 -0.0098076165 1.5 0.75 0.5 0 1 0
0.78977776 0.1723543 1.5 0.875 0.5 0 1 0
0.7598076 0.4 1.5 1 0.5 0 1 0
0.5776457 0.53977776 2 0.125 0.6666667 0 0.5 0.5
0.7598076 0.4 2 0 0.6666667 0 0.5 0.5
0.35 0.5098076 2 0.25 0.6666667 0 0.5 0.5
0.21022224 0.32764572 2 0.375 0.6666667 0 0.5 0.5
0.24019238 0.099999994 2 0.5 0.6666667 0 0.5 0.5
0.42235428 -0.039777756 2 0.625 0.6666667 0 0.5 0.5
0.65 -0.0098076165 2 0.75 0.6666667 0 0.5 0.5
0.78977776 0.1723543 2 0.875 0.6666667 0 0.5 0.5
0.7598076 0.4 2 1 0.6666667 0 0.5 0.5
0.5776457 0.53977776 2.5 0.125 0.8333333 0 0 1
0.7598076 0.4 2.5 0 0.8333333 0 0 1
0.35 0.5098076 2.5 0.25 0.8333333 0 0 1
0.21022224 0.32764572 2.5 0.375 0.8333333 0 0 1
0.24019238 0.099999994 2.5 0.5 0.8333333 0 0 1
0.42235428 -0.039777756 2.5 0.625 0.8333333 0 0 1
0.65 -0.0098076165 2.5 0.75 0.8333333 0 0 1
0.78977776 0.1723543 2.5 0.875 0.8333333 0 0 1
0.7598076 0.4 2.5 1 0.8333333 0 0 1
0.5776457 0.53977776 3 0.125 1 0 0 1
0.7598076 0.4 3 0 1 0 0 1
0.35 0.5098076 3 0.25 1 0 0 1
0.21022224 0.32764572 3 0.375 1 0 0 1
0.24019238 0.099999994 3 0.5 1 0 0 1
0.42235428 -0.039777756 3 0.625 1 0 0 1
0.65 -0.0098076165 3 0.75 1 0 0 1
0.78977776 0.1723543 3 0.875 1 0 0 1
0.7598076 0.4 3 1 1 0 0 1
4 0 1 2 3
4 1 4 5 2
4 4 6 7 5
4 6 8 9 7
4 8 10 11 9
4 10 12 13 11
4 12 14 15 13
4 14 16 17 15
4 3 2 18 19
4 2 5 20 18
4 5 7 21 20
4 7 9 22 21
4 9 11 23 22
4 11 13 24 23
4 13 15 25 24
4 15 17 26 25
4 19 18 27 28
4 18 20 29 27
4 20 21 30 29
4 21 22 31 30
4 22 23 32 31
4 23 24 33 32
4 24 25 34 33
4 25 26 35 34
4 28 27 36 37
4 27 29 38 36
4 29 30 39 38
4 30 31 40 39
4 31 32 41 40
4 32 33 42 41
4 33 34 43 42
4 34 35 44 43
4 37 36 45 46
4 36 38 47 45
4 38 39 48 47
4 39 40 49 48
4 40 41 50 49
4 41 42 51 50
4 42 43 52 51
4 43 44 53 52
4 46 45 54 55
4 45 47 56 54
4 47 48 57 56
4 48 49 58 57
4 49 50 59 58
4 50 51 60 59
4 51 52 61 60
4 52 53 62 61
