# Blender 5.2.0 LTS
# www.blender.org
mtllib rig.mtl
o Body
v 0.759808 0.000000 -0.400000
v 0.577646 0.000000 -0.539778
v 0.350000 0.000000 -0.509808
v 0.210222 0.000000 -0.327646
v 0.240192 0.000000 -0.100000
v 0.422354 0.000000 0.039778
v 0.650000 0.000000 0.009808
v 0.789778 0.000000 -0.172354
v 0.759808 0.500000 -0.400000
v 0.577646 0.500000 -0.539778
v 0.350000 0.500000 -0.509808
v 0.210222 0.500000 -0.327646
v 0.240192 0.500000 -0.100000
v 0.422354 0.500000 0.039778
v 0.650000 0.500000 0.009808
v 0.789778 0.500000 -0.172354
v 0.759808 1.000000 -0.400000
v 0.577646 1.000000 -0.539778
v 0.350000 1.000000 -0.509808
v 0.210222 1.000000 -0.327646
v 0.240192 1.000000 -0.100000
v 0.422354 1.000000 0.039778
v 0.650000 1.000000 0.009808
v 0.789778 1.000000 -0.172354
v 0.759808 1.500000 -0.400000
v 0.577646 1.500000 -0.539778
v 0.350000 1.500000 -0.509808
v 0.210222 1.500000 -0.327646
v 0.240192 1.500000 -0.100000
v 0.422354 1.500000 0.039778
v 0.650000 1.500000 0.009808
v 0.789778 1.500000 -0.172354
v 0.759808 2.000000 -0.400000
v 0.577646 2.000000 -0.539778
v 0.350000 2.000000 -0.509808
v 0.210222 2.000000 -0.327646
v 0.240192 2.000000 -0.100000
v 0.422354 2.000000 0.039778
v 0.650000 2.000000 0.009808
v 0.789778 2.000000 -0.172354
v 0.759808 2.500000 -0.400000
v 0.577646 2.500000 -0.539778
v 0.350000 2.500000 -0.509808
v 0.210222 2.500000 -0.327646
v 0.240192 2.500000 -0.100000
v 0.422354 2.500000 0.039778
v 0.650000 2.500000 0.009808
v 0.789778 2.500000 -0.172354
v 0.759808 3.000000 -0.400000
v 0.577646 3.000000 -0.539778
v 0.350000 3.000000 -0.509808
v 0.210222 3.000000 -0.327646
v 0.240192 3.000000 -0.100000
v 0.422354 3.000000 0.039778
v 0.650000 3.000000 0.009808
v 0.789778 3.000000 -0.172354
vn 0.6088 -0.0000 -0.7934
vn -0.1305 -0.0000 -0.9914
vn -0.7934 -0.0000 -0.6088
vn -0.9914 -0.0000 0.1305
vn -0.6088 -0.0000 0.7934
vn 0.1305 -0.0000 0.9914
vn 0.7934 -0.0000 0.6088
vn 0.9914 -0.0000 -0.1305
vt 0.000000 0.000000
vt 0.125000 0.000000
vt 0.125000 0.166667
vt 0.000000 0.166667
vt 0.250000 0.000000
vt 0.250000 0.166667
vt 0.375000 0.000000
vt 0.375000 0.166667
vt 0.500000 0.000000
vt 0.500000 0.166667
vt 0.625000 0.000000
vt 0.625000 0.166667
vt 0.750000 0.000000
vt 0.750000 0.166667
vt 0.875000 0.000000
vt 0.875000 0.166667
vt 1.000000 0.000000
vt 1.000000 0.166667
vt 0.125000 0.333333
vt 0.000000 0.333333
vt 0.250000 0.333333
vt 0.375000 0.333333
vt 0.500000 0.333333
vt 0.625000 0.333333
vt 0.750000 0.333333
vt 0.875000 0.333333
vt 1.000000 0.333333
vt 0.125000 0.500000
vt 0.000000 0.500000
vt 0.250000 0.500000
vt 0.375000 0.500000
vt 0.500000 0.500000
vt 0.625000 0.500000
vt 0.750000 0.500000
vt 0.875000 0.500000
vt 1.000000 0.500000
vt 0.125000 0.666667
vt 0.000000 0.666667
vt 0.250000 0.666667
vt 0.375000 0.666667
vt 0.500000 0.666667
vt 0.625000 0.666667
vt 0.750000 0.666667
vt 0.875000 0.666667
vt 1.000000 0.666667
vt 0.125000 0.833333
vt 0.000000 0.833333
vt 0.250000 0.833333
vt 0.375000 0.833333
vt 0.500000 0.833333
vt 0.625000 0.833333
vt 0.750000 0.833333
vt 0.875000 0.833333
vt 1.000000 0.833333
vt 0.125000 1.000000
vt 0.000000 1.000000
vt 0.250000 1.000000
vt 0.375000 1.000000
vt 0.500000 1.000000
vt 0.625000 1.000000
vt 0.750000 1.000000
vt 0.875000 1.000000
vt 1.000000 1.000000
s 0
usemtl Skin
f 1/1/1 2/2/1 10/3/1 9/4/1
f 2/2/2 3/5/2 11/6/2 10/3/2
f 3/5/3 4/7/3 12/8/3 11/6/3
f 4/7/4 5/9/4 13/10/4 12/8/4
f 5/9/5 6/11/5 14/12/5 13/10/5
f 6/11/6 7/13/6 15/14/6 14/12/6
f 7/13/7 8/15/7 16/16/7 15/14/7
f 8/15/8 1/17/8 9/18/8 16/16/8
f 9/4/1 10/3/1 18/19/1 17/20/1
f 10/3/2 11/6/2 19/21/2 18/19/2
f 11/6/3 12/8/3 20/22/3 19/21/3
f 12/8/4 13/10/4 21/23/4 20/22/4
f 13/10/5 14/12/5 22/24/5 21/23/5
f 14/12/6 15/14/6 23/25/6 22/24/6
f 15/14/7 16/16/7 24/26/7 23/25/7
f 16/16/8 9/18/8 17/27/8 24/26/8
f 17/20/1 18/19/1 26/28/1 25/29/1
f 18/19/2 19/21/2 27/30/2 26/28/2
f 19/21/3 20/22/3 28/31/3 27/30/3
f 20/22/4 21/23/4 29/32/4 28/31/4
f 21/23/5 22/24/5 30/33/5 29/32/5
f 22/24/6 23/25/6 31/34/6 30/33/6
f 23/25/7 24/26/7 32/35/7 31/34/7
f 24/26/8 17/27/8 25/36/8 32/35/8
f 25/29/1 26/28/1 34/37/1 33/38/1
f 26/28/2 27/30/2 35/39/2 34/37/2
f 27/30/3 28/31/3 36/40/3 35/39/3
f 28/31/4 29/32/4 37/41/4 36/40/4
f 29/32/5 30/33/5 38/42/5 37/41/5
f 30/33/6 31/34/6 39/43/6 38/42/6
f 31/34/7 32/35/7 40/44/7 39/43/7
f 32/35/8 25/36/8 33/45/8 40/44/8
f 33/38/1 34/37/1 42/46/1 41/47/1
f 34/37/2 35/39/2 43/48/2 42/46/2
f 35/39/3 36/40/3 44/49/3 43/48/3
f 36/40/4 37/41/4 45/50/4 44/49/4
f 37/41/5 38/42/5 46/51/5 45/50/5
f 38/42/6 39/43/6 47/52/6 46/51/6
f 39/43/7 40/44/7 48/53/7 47/52/7
f 40/44/8 33/45/8 41/54/8 48/53/8
f 41/47/1 42/46/1 50/55/1 49/56/1
f 42/46/2 43/48/2 51/57/2 50/55/2
f 43/48/3 44/49/3 52/58/3 51/57/3
f 44/49/4 45/50/4 53/59/4 52/58/4
f 45/50/5 46/51/5 54/60/5 53/59/5
f 46/51/6 47/52/6 55/61/6 54/60/6
f 47/52/7 48/53/7 56/62/7 55/61/7
f 48/53/8 41/54/8 49/63/8 56/62/8
