<?xml version="1.0" encoding="UTF-8" standalone="no" ?>
<COLLADA xmlns="http://www.collada.org/2005/11/COLLADASchema" version="1.4.1">
  <asset>
    <contributor>
      <author>Assimp</author>
      <authoring_tool>Khronos glTF Blender I/O v5.2.39</authoring_tool>
    </contributor>
    <created>2026-10-07T22:59:16</created>
    <modified>2026-10-07T22:59:16</modified>
    <unit name="meter" meter="1" />
    <up_axis>Y_UP</up_axis>
  </asset>
  <library_images>
    <image id="Skin-diffuse-image">
      <init_from>rig_texture_0001.png</init_from>
    </image>
  </library_images>
  <library_effects>
    <effect id="Skin-fx" name="Skin">
      <profile_COMMON>
        <newparam sid="Skin-diffuse-surface">
          <surface type="2D">
            <init_from>Skin-diffuse-image</init_from>
          </surface>
        </newparam>
        <newparam sid="Skin-diffuse-sampler">
          <sampler2D>
            <source>Skin-diffuse-surface</source>
          </sampler2D>
        </newparam>
        <technique sid="standard">
          <phong>
            <emission>
              <color sid="emission">0   0   0   1</color>
            </emission>
            <diffuse>
              <texture texture="Skin-diffuse-sampler" texcoord="CHANNEL0" />
            </diffuse>
            <shininess>
              <float sid="shininess">250</float>
            </shininess>
            <transparency>
              <float sid="transparency">1</float>
            </transparency>
          </phong>
        </technique>
      </profile_COMMON>
    </effect>
    <effect id="material_1-fx" name="">
      <profile_COMMON>
        <technique sid="standard">
          <phong>
            <emission>
              <color sid="emission">0   0   0   1</color>
            </emission>
            <diffuse>
              <color sid="diffuse">1   1   1   1</color>
            </diffuse>
            <shininess>
              <float sid="shininess">0</float>
            </shininess>
            <transparency>
              <float sid="transparency">1</float>
            </transparency>
          </phong>
        </technique>
      </profile_COMMON>
    </effect>
  </library_effects>
  <library_materials>
    <material id="Skin" name="Skin">
      <instance_effect url="#Skin-fx"/>
    </material>
    <material id="material_1" name="">
      <instance_effect url="#material_1-fx"/>
    </material>
  </library_materials>
  <library_geometries>
    <geometry id="Body_1" name="Body" >
      <mesh>
        <source id="Body_1-positions" name="Body_1-positions">
          <float_array id="Body_1-positions-array" count="336"> 0.759807587 0 -0.400000006 0.577645719 0 -0.539777756 0.577645719 0.5 -0.539777756 0.759807587 0.5 -0.400000006 0.577645719 0 -0.539777756 0.349999994 0 -0.509807587 0.349999994 0.5 -0.509807587 0.577645719 0.5 -0.539777756 0.349999994 0 -0.509807587 0.210222244 0 -0.327645719 0.210222244 0.5 -0.327645719 0.349999994 0.5 -0.509807587 0.210222244 0 -0.327645719 0.240192384 0 -0.099999994 0.240192384 0.5 -0.099999994 0.210222244 0.5 -0.327645719 0.240192384 0 -0.099999994 0.422354281 0 0.0397777557 0.422354281 0.5 0.0397777557 0.240192384 0.5 -0.099999994 0.422354281 0 0.0397777557 0.649999976 0 0.00980761647 0.649999976 0.5 0.00980761647 0.422354281 0.5 0.0397777557 0.649999976 0 0.00980761647 0.789777756 0 -0.172354281 0.789777756 0.5 -0.172354281 0.649999976 0.5 0.00980761647 0.789777756 0 -0.172354281 0.759807587 0 -0.400000006 0.759807587 0.5 -0.400000006 0.789777756 0.5 -0.172354281 0.577645719 1 -0.539777756 0.759807587 1 -0.400000006 0.349999994 1 -0.509807587 0.577645719 1 -0.539777756 0.210222244 1 -0.327645719 0.349999994 1 -0.509807587 0.240192384 1 -0.099999994 0.210222244 1 -0.327645719 0.422354281 1 0.0397777557 0.240192384 1 -0.099999994 0.649999976 1 0.00980761647 0.422354281 1 0.0397777557 0.789777756 1 -0.172354281 0.649999976 1 0.00980761647 0.759807587 1 -0.400000006 0.789777756 1 -0.172354281 0.577645719 1.5 -0.539777756 0.759807587 1.5 -0.400000006 0.349999994 1.5 -0.509807587 0.577645719 1.5 -0.539777756 0.210222244 1.5 -0.327645719 0.349999994 1.5 -0.509807587 0.240192384 1.5 -0.099999994 0.210222244 1.5 -0.327645719 0.422354281 1.5 0.0397777557 0.240192384 1.5 -0.099999994 0.649999976 1.5 0.00980761647 0.422354281 1.5 0.0397777557 0.789777756 1.5 -0.172354281 0.649999976 1.5 0.00980761647 0.759807587 1.5 -0.400000006 0.789777756 1.5 -0.172354281 0.577645719 2 -0.539777756 0.759807587 2 -0.400000006 0.349999994 2 -0.509807587 0.577645719 2 -0.539777756 0.210222244 2 -0.327645719 0.349999994 2 -0.509807587 0.240192384 2 -0.099999994 0.210222244 2 -0.327645719 0.422354281 2 0.0397777557 0.240192384 2 -0.099999994 0.649999976 2 0.00980761647 0.422354281 2 0.0397777557 0.789777756 2 -0.172354281 0.649999976 2 0.00980761647 0.759807587 2 -0.400000006 0.789777756 2 -0.172354281 0.577645719 2.5 -0.539777756 0.759807587 2.5 -0.400000006 0.349999994 2.5 -0.509807587 0.577645719 2.5 -0.539777756 0.210222244 2.5 -0.327645719 0.349999994 2.5 -0.509807587 0.240192384 2.5 -0.099999994 0.210222244 2.5 -0.327645719 0.422354281 2.5 0.0397777557 0.240192384 2.5 -0.099999994 0.649999976 2.5 0.00980761647 0.422354281 2.5 0.0397777557 0.789777756 2.5 -0.172354281 0.649999976 2.5 0.00980761647 0.759807587 2.5 -0.400000006 0.789777756 2.5 -0.172354281 0.577645719 3 -0.539777756 0.759807587 3 -0.400000006 0.349999994 3 -0.509807587 0.577645719 3 -0.539777756 0.210222244 3 -0.327645719 0.349999994 3 -0.509807587 0.240192384 3 -0.099999994 0.210222244 3 -0.327645719 0.422354281 3 0.0397777557 0.240192384 3 -0.099999994 0.649999976 3 0.00980761647 0.422354281 3 0.0397777557 0.789777756 3 -0.172354281 0.649999976 3 0.00980761647 0.759807587 3 -0.400000006 0.789777756 3 -0.172354281 </float_array>
          <technique_common>
            <accessor count="112" offset="0" source="#Body_1-positions-array" stride="3">
              <param name="X" type="float" />
              <param name="Y" type="float" />
              <param name="Z" type="float" />
            </accessor>
          </technique_common>
        </source>
        <source id="Body_1-normals" name="Body_1-normals">
          <float_array id="Body_1-normals-array" count="336"> 0.608755529 0 -0.793357909 0.608755529 0 -0.793357909 0.608755529 0 -0.793357909 0.608755529 0 -0.793357909 -0.130518809 0 -0.991445839 -0.130518809 0 -0.991445839 -0.130518809 0 -0.991445839 -0.130518809 0 -0.991445839 -0.793357909 0 -0.608755529 -0.793357909 0 -0.608755529 -0.793357909 0 -0.608755529 -0.793357909 0 -0.608755529 -0.991445839 0 0.130518809 -0.991445839 0 0.130518809 -0.991445839 0 0.130518809 -0.991445839 0 0.130518809 -0.608755529 0 0.793357909 -0.608755529 0 0.793357909 -0.608755529 0 0.793357909 -0.608755529 0 0.793357909 0.130518809 0 0.991445839 0.130518809 0 0.991445839 0.130518809 0 0.991445839 0.130518809 0 0.991445839 0.793357909 0 0.608755529 0.793357909 0 0.608755529 0.793357909 0 0.608755529 0.793357909 0 0.608755529 0.991445839 0 -0.130518809 0.991445839 0 -0.130518809 0.991445839 0 -0.130518809 0.991445839 0 -0.130518809 0.608755529 0 -0.793357909 0.608755529 0 -0.793357909 -0.130518809 0 -0.991445839 -0.130518809 0 -0.991445839 -0.793357909 0 -0.608755529 -0.793357909 0 -0.608755529 -0.991445839 0 0.130518809 -0.991445839 0 0.130518809 -0.608755529 0 0.793357909 -0.608755529 0 0.793357909 0.130518809 0 0.991445839 0.130518809 0 0.991445839 0.793357909 0 0.608755529 0.793357909 0 0.608755529 0.991445839 0 -0.130518809 0.991445839 0 -0.130518809 0.608755529 0 -0.793357909 0.608755529 0 -0.793357909 -0.130518809 0 -0.991445839 -0.130518809 0 -0.991445839 -0.793357909 0 -0.608755529 -0.793357909 0 -0.608755529 -0.991445839 0 0.130518809 -0.991445839 0 0.130518809 -0.608755529 0 0.793357909 -0.608755529 0 0.793357909 0.130518809 0 0.991445839 0.130518809 0 0.991445839 0.793357909 0 0.608755529 0.793357909 0 0.608755529 0.991445839 0 -0.130518809 0.991445839 0 -0.130518809 0.608755529 0 -0.793357909 0.608755529 0 -0.793357909 -0.130518809 0 -0.991445839 -0.130518809 0 -0.991445839 -0.793357909 0 -0.608755529 -0.793357909 0 -0.608755529 -0.991445839 0 0.130518809 -0.991445839 0 0.130518809 -0.608755529 0 0.793357909 -0.608755529 0 0.793357909 0.130518809 0 0.991445839 0.130518809 0 0.991445839 0.793357909 0 0.608755529 0.793357909 0 0.608755529 0.991445839 0 -0.130518809 0.991445839 0 -0.130518809 0.608755529 0 -0.793357909 0.608755529 0 -0.793357909 -0.130518809 0 -0.991445839 -0.130518809 0 -0.991445839 -0.793357909 0 -0.608755529 -0.793357909 0 -0.608755529 -0.991445839 0 0.130518809 -0.991445839 0 0.130518809 -0.608755529 0 0.793357909 -0.608755529 0 0.793357909 0.130518809 0 0.991445839 0.130518809 0 0.991445839 0.793357909 0 0.608755529 0.793357909 0 0.608755529 0.991445839 0 -0.130518809 0.991445839 0 -0.130518809 0.608755529 0 -0.793357909 0.608755529 0 -0.793357909 -0.130518809 0 -0.991445839 -0.130518809 0 -0.991445839 -0.793357909 0 -0.608755529 -0.793357909 0 -0.608755529 -0.991445839 0 0.130518809 -0.991445839 0 0.130518809 -0.608755529 0 0.793357909 -0.608755529 0 0.793357909 0.130518809 0 0.991445839 0.130518809 0 0.991445839 0.793357909 0 0.608755529 0.793357909 0 0.608755529 0.991445839 0 -0.130518809 0.991445839 0 -0.130518809 </float_array>
          <technique_common>
            <accessor count="112" offset="0" source="#Body_1-normals-array" stride="3">
              <param name="X" type="float" />
              <param name="Y" type="float" />
              <param name="Z" type="float" />
            </accessor>
          </technique_common>
        </source>
        <source id="Body_1-tex0" name="Body_1-tex0">
          <float_array id="Body_1-tex0-array" count="224"> 0 0 0.125 0 0.125 0.166666687 0 0.166666687 0.125 0 0.25 0 0.25 0.166666687 0.125 0.166666687 0.25 0 0.375 0 0.375 0.166666687 0.25 0.166666687 0.375 0 0.5 0 0.5 0.166666687 0.375 0.166666687 0.5 0 0.625 0 0.625 0.166666687 0.5 0.166666687 0.625 0 0.75 0 0.75 0.166666687 0.625 0.166666687 0.75 0 0.875 0 0.875 0.166666687 0.75 0.166666687 0.875 0 1 0 1 0.166666687 0.875 0.166666687 0.125 0.333333373 0 0.333333373 0.25 0.333333373 0.125 0.333333373 0.375 0.333333373 0.25 0.333333373 0.5 0.333333373 0.375 0.333333373 0.625 0.333333373 0.5 0.333333373 0.75 0.333333373 0.625 0.333333373 0.875 0.333333373 0.75 0.333333373 1 0.333333373 0.875 0.333333373 0.125 0.5 0 0.5 0.25 0.5 0.125 0.5 0.375 0.5 0.25 0.5 0.5 0.5 0.375 0.5 0.625 0.5 0.5 0.5 0.75 0.5 0.625 0.5 0.875 0.5 0.75 0.5 1 0.5 0.875 0.5 0.125 0.666666687 0 0.666666687 0.25 0.666666687 0.125 0.666666687 0.375 0.666666687 0.25 0.666666687 0.5 0.666666687 0.375 0.666666687 0.625 0.666666687 0.5 0.666666687 0.75 0.666666687 0.625 0.666666687 0.875 0.666666687 0.75 0.666666687 1 0.666666687 0.875 0.666666687 0.125 0.833333313 0 0.833333313 0.25 0.833333313 0.125 0.833333313 0.375 0.833333313 0.25 0.833333313 0.5 0.833333313 0.375 0.833333313 0.625 0.833333313 0.5 0.833333313 0.75 0.833333313 0.625 0.833333313 0.875 0.833333313 0.75 0.833333313 1 0.833333313 0.875 0.833333313 0.125 1 0 1 0.25 1 0.125 1 0.375 1 0.25 1 0.5 1 0.375 1 0.625 1 0.5 1 0.75 1 0.625 1 0.875 1 0.75 1 1 1 0.875 1 </float_array>
          <technique_common>
            <accessor count="112" offset="0" source="#Body_1-tex0-array" stride="2">
              <param name="S" type="float" />
              <param name="T" type="float" />
            </accessor>
          </technique_common>
        </source>
        <vertices id="Body_1-vertices">
          <input semantic="POSITION" source="#Body_1-positions" />
        </vertices>
        <polylist count="96" material="defaultMaterial">
          <input offset="0" semantic="VERTEX" source="#Body_1-vertices" />
          <input offset="0" semantic="NORMAL" source="#Body_1-normals" />
          <input offset="0" semantic="TEXCOORD" source="#Body_1-tex0" set="0" />
          <vcount>3 3 3 3 3 3 3 3 3 3 3 3 3 3 3 3 3 3 3 3 3 3 3 3 3 3 3 3 3 3 3 3 3 3 3 3 3 3 3 3 3 3 3 3 3 3 3 3 3 3 3 3 3 3 3 3 3 3 3 3 3 3 3 3 3 3 3 3 3 3 3 3 3 3 3 3 3 3 3 3 3 3 3 3 3 3 3 3 3 3 3 3 3 3 3 3 </vcount>
          <p>0 1 2 0 2 3 4 5 6 4 6 7 8 9 10 8 10 11 12 13 14 12 14 15 16 17 18 16 18 19 20 21 22 20 22 23 24 25 26 24 26 27 28 29 30 28 30 31 3 2 32 3 32 33 7 6 34 7 34 35 11 10 36 11 36 37 15 14 38 15 38 39 19 18 40 19 40 41 23 22 42 23 42 43 27 26 44 27 44 45 31 30 46 31 46 47 33 32 48 33 48 49 35 34 50 35 50 51 37 36 52 37 52 53 39 38 54 39 54 55 41 40 56 41 56 57 43 42 58 43 58 59 45 44 60 45 60 61 47 46 62 47 62 63 49 48 64 49 64 65 51 50 66 51 66 67 53 52 68 53 68 69 55 54 70 55 70 71 57 56 72 57 72 73 59 58 74 59 74 75 61 60 76 61 76 77 63 62 78 63 78 79 65 64 80 65 80 81 67 66 82 67 82 83 69 68 84 69 84 85 71 70 86 71 86 87 73 72 88 73 88 89 75 74 90 75 90 91 77 76 92 77 92 93 79 78 94 79 94 95 81 80 96 81 96 97 83 82 98 83 98 99 85 84 100 85 100 101 87 86 102 87 102 103 89 88 104 89 104 105 91 90 106 91 106 107 93 92 108 93 108 109 95 94 110 95 110 111 </p>
        </polylist>
      </mesh>
    </geometry>
  </library_geometries>
  <library_controllers>
    <controller id="Body_1-skin" name="skinCluster0">
      <skin source="#Body_1">
        <bind_shape_matrix>
          1 0 0 0
          0 1 0 0
          0 0 1 0
          0 0 0 1
        </bind_shape_matrix>
        <source id="Body_1-skin-joints" name="Body-skin-joints">
          <Name_array id="Body_1-skin-joints-array" count="3">b0 b1 b2 </Name_array>
          <technique_common>
            <accessor source="#Body_1-skin-joints-array" count="3" stride="1">
              <param name="JOINT" type="Name"></param>
            </accessor>
          </technique_common>
        </source>
        <source id="Body_1-skin-bind_poses" name="Body_1-skin-bind_poses">
          <float_array id="Body_1-skin-bind_poses-array" count="48"> 0.866025388 -0 -0.5 -0.558012724 -0 1 -0 0 0.5 -0 0.866025388 -0.0334936529 -0 0 -0 1 0.866025388 -0 -0.5 -0.558012724 -0 1 -0 -1 0.5 -0 0.866025388 -0.0334936529 -0 0 -0 1 0.866025388 -0 -0.5 -0.558012724 -0 1 -0 -2 0.5 -0 0.866025388 -0.0334936529 -0 0 -0 1 </float_array>
          <technique_common>
            <accessor count="3" offset="0" source="#Body_1-skin-bind_poses-array" stride="16">
              <param name="TRANSFORM" type="float4x4" />
            </accessor>
          </technique_common>
        </source>
        <source id="Body_1-skin-weights" name="Body_1-skin-weights">
          <float_array id="Body_1-skin-weights-array" count="144"> 1 1 1 1 1 1 1 1 1 1 1 1 1 1 1 1 1 1 1 1 1 1 1 1 1 1 1 1 1 1 1 1 0.5 0.5 0.5 0.5 0.5 0.5 0.5 0.5 0.5 0.5 0.5 0.5 0.5 0.5 0.5 0.5 0.5 0.5 0.5 0.5 0.5 0.5 0.5 0.5 0.5 0.5 0.5 0.5 0.5 0.5 0.5 0.5 1 1 1 1 1 1 1 1 1 1 1 1 1 1 1 1 0.5 0.5 0.5 0.5 0.5 0.5 0.5 0.5 0.5 0.5 0.5 0.5 0.5 0.5 0.5 0.5 0.5 0.5 0.5 0.5 0.5 0.5 0.5 0.5 0.5 0.5 0.5 0.5 0.5 0.5 0.5 0.5 1 1 1 1 1 1 1 1 1 1 1 1 1 1 1 1 1 1 1 1 1 1 1 1 1 1 1 1 1 1 1 1 </float_array>
          <technique_common>
            <accessor count="144" offset="0" source="#Body_1-skin-weights-array" stride="1">
              <param name="WEIGHT" type="float" />
            </accessor>
          </technique_common>
        </source>
        <joints>
          <input semantic="JOINT" source="#Body_1-skin-joints"></input>
          <input semantic="INV_BIND_MATRIX" source="#Body_1-skin-bind_poses"></input>
        </joints>
        <vertex_weights count="112">
          <input semantic="JOINT" source="#Body_1-skin-joints" offset="0"></input>
          <input semantic="WEIGHT" source="#Body_1-skin-weights" offset="1"></input>
          <vcount>1 1 1 1 1 1 1 1 1 1 1 1 1 1 1 1 1 1 1 1 1 1 1 1 1 1 1 1 1 1 1 1 2 2 2 2 2 2 2 2 2 2 2 2 2 2 2 2 1 1 1 1 1 1 1 1 1 1 1 1 1 1 1 1 2 2 2 2 2 2 2 2 2 2 2 2 2 2 2 2 1 1 1 1 1 1 1 1 1 1 1 1 1 1 1 1 1 1 1 1 1 1 1 1 1 1 1 1 1 1 1 1 </vcount>
          <v>0 0 0 1 0 2 0 3 0 4 0 5 0 6 0 7 0 8 0 9 0 10 0 11 0 12 0 13 0 14 0 15 0 16 0 17 0 18 0 19 0 20 0 21 0 22 0 23 0 24 0 25 0 26 0 27 0 28 0 29 0 30 0 31 0 32 1 48 0 33 1 49 0 34 1 50 0 35 1 51 0 36 1 52 0 37 1 53 0 38 1 54 0 39 1 55 0 40 1 56 0 41 1 57 0 42 1 58 0 43 1 59 0 44 1 60 0 45 1 61 0 46 1 62 0 47 1 63 1 64 1 65 1 66 1 67 1 68 1 69 1 70 1 71 1 72 1 73 1 74 1 75 1 76 1 77 1 78 1 79 1 80 2 96 1 81 2 97 1 82 2 98 1 83 2 99 1 84 2 100 1 85 2 101 1 86 2 102 1 87 2 103 1 88 2 104 1 89 2 105 1 90 2 106 1 91 2 107 1 92 2 108 1 93 2 109 1 94 2 110 1 95 2 111 2 112 2 113 2 114 2 115 2 116 2 117 2 118 2 119 2 120 2 121 2 122 2 123 2 124 2 125 2 126 2 127 2 128 2 129 2 130 2 131 2 132 2 133 2 134 2 135 2 136 2 137 2 138 2 139 2 140 2 141 2 142 2 143 </v>
        </vertex_weights>
      </skin>
    </controller>
  </library_controllers>
  <library_visual_scenes>
    <visual_scene id="Scene" name="Scene">
      <node id="Rig" name="Rig" type="NODE">
        <matrix sid="matrix">0.866025388 0 0.500000119 0.5 0 1 0 0 -0.500000119 0 0.866025388 -0.25 0 0 0 1</matrix>
        <node id="Body" name="Body" type="NODE">
          <matrix sid="matrix">1 0 0 0 0 1 0 0 0 0 1 0 0 0 0 1</matrix>
          <instance_controller url="#Body_1-skin">
            <skeleton>#b0</skeleton>
            <bind_material>
              <technique_common>
                <instance_material symbol="defaultMaterial" target="#Skin">
                  <bind_vertex_input semantic="CHANNEL0" input_semantic="TEXCOORD" input_set="0"/>
                </instance_material>
              </technique_common>
            </bind_material>
          </instance_controller>
        </node>
        <node id="b0" sid="b0" name="b0" type="JOINT">
          <matrix sid="matrix">1 0 0 -2.98023224e-08 0 1 0 0 0 0 1 0 0 0 0 1</matrix>
          <node id="b1" sid="b1" name="b1" type="JOINT">
            <matrix sid="matrix">1 0 0 -2.98023224e-08 0 1 0 1 0 0 1 0 0 0 0 1</matrix>
            <node id="b2" sid="b2" name="b2" type="JOINT">
              <matrix sid="matrix">1 0 0 -2.98023224e-08 0 1 0 1 0 0 1 0 0 0 0 1</matrix>
            </node>
          </node>
        </node>
      </node>
    </visual_scene>
  </library_visual_scenes>
  <scene>
    <instance_visual_scene url="#Scene" />
  </scene>
</COLLADA>
